<?xml version="1.0" standalone="no"?>
<!DOCTYPE svg PUBLIC "-//W3C//DTD SVG 20010904//EN"
 "http://www.w3.org/TR/2001/REC-SVG-20010904/DTD/svg10.dtd">
<svg version="1.0" xmlns="http://www.w3.org/2000/svg"
 width="300.000000pt" height="300.000000pt" viewBox="0 0 300.000000 300.000000"
 preserveAspectRatio="xMidYMid meet">
<metadata>
Created by potrace 1.14, written by Peter Selinger 2001-2017
</metadata>
<g transform="translate(0.000000,300.000000) scale(0.100000,-0.100000)"
fill="#000000" stroke="none">
<path d="M0 1500 l0 -1500 1500 0 1500 0 0 1500 0 1500 -1500 0 -1500 0 0
-1500z m900 1055 c0 -10 172 -840 175 -843 2 -2 8 18 13 45 16 77 102 485 137
648 l32 150 114 0 114 0 7 -395 c3 -217 8 -493 11 -613 l4 -218 -86 3 -86 3
-6 255 c-3 140 -7 325 -9 410 -1 85 -5 144 -7 130 -2 -14 -40 -196 -84 -405
-43 -209 -79 -383 -79 -387 0 -5 -31 -8 -70 -8 -38 0 -70 1 -70 3 0 1 -27 131
-61 287 -33 157 -72 344 -87 415 l-27 130 -6 -390 c-3 -214 -7 -402 -8 -417
l-1 -28 -86 0 -87 0 7 483 c3 265 9 542 12 615 l6 132 114 0 c63 0 114 -2 114
-5z m1211 -209 c75 -17 144 -59 174 -104 31 -47 49 -140 40 -209 l-6 -53 -67
0 c-110 0 -110 1 -104 75 2 35 2 74 -2 88 -7 30 -50 49 -102 45 -50 -4 -84
-50 -84 -115 0 -53 11 -75 111 -224 90 -133 114 -184 130 -273 13 -78 0 -157
-39 -229 -62 -115 -193 -156 -339 -106 -76 25 -134 74 -167 141 -22 44 -26 65
-26 139 0 48 3 94 6 103 5 13 22 16 79 16 106 0 103 3 98 -93 -5 -100 13 -139
72 -156 67 -18 110 16 121 100 10 72 -11 125 -105 264 -132 195 -136 204 -135
305 0 123 45 214 126 260 73 41 129 48 219 26z m-351 -1231 c52 -13 120 -33
150 -43 l55 -19 -90 -7 c-49 -3 -158 -13 -241 -21 -84 -8 -160 -12 -171 -8
-11 5 -50 31 -87 58 -67 49 -67 50 -39 56 15 4 96 7 178 8 131 1 164 -2 245
-24z m-507 -27 c41 -12 137 -91 125 -103 -4 -4 -76 -15 -160 -24 -153 -17
-153 -17 -167 3 -8 12 -25 33 -39 48 -14 15 -23 30 -20 33 3 4 37 17 74 30 77
27 127 31 187 13z m-363 -52 c0 -2 -8 -10 -17 -17 -16 -13 -17 -12 -4 4 13 16
21 21 21 13z m1330 -16 c213 -15 255 -25 127 -32 -54 -3 -103 -10 -109 -16 -8
-8 -3 -25 17 -59 l28 -48 -41 37 c-23 20 -58 46 -80 57 -43 22 -184 41 -319
42 -101 1 -99 5 7 18 107 12 194 12 370 1z m-1219 -37 l33 -38 -88 -12 c-49
-6 -97 -14 -107 -16 -17 -5 -17 -3 -3 19 17 26 100 84 120 84 6 0 27 -17 45
-37z m-151 24 c0 -1 -33 -34 -72 -72 l-73 -70 70 73 c64 67 75 77 75 69z
m1643 -43 c19 -4 33 -17 47 -44 33 -65 32 -66 -87 -73 -101 -6 -109 -5 -131
16 -28 26 -66 86 -59 93 2 3 33 9 68 14 61 8 99 6 162 -6z m-329 -39 c28 -26
34 -62 12 -71 -33 -13 -118 59 -102 85 12 19 62 12 90 -14z m-155 0 c52 -26
48 -65 -5 -65 -24 0 -43 8 -59 24 -46 46 0 75 64 41z m577 -27 c8 -16 13 -32
10 -35 -2 -3 -14 14 -26 37 -12 23 -17 39 -11 35 6 -3 18 -20 27 -37z m-1886
-32 c0 -2 -8 -10 -17 -17 -16 -13 -17 -12 -4 4 13 16 21 21 21 13z m1048 -73
c68 -97 48 -274 -34 -312 l-26 -12 25 31 c64 75 63 235 -1 311 -23 28 -24 31
-5 21 12 -7 30 -24 41 -39z m-714 -143 c71 0 127 -2 125 -4 -2 -2 -62 -6 -133
-9 -117 -4 -130 -3 -147 14 -27 27 -24 44 3 19 20 -18 35 -20 152 -20z m1626
11 c0 -27 -58 -47 -191 -66 -124 -17 -396 -35 -526 -35 -79 0 -83 1 -83 23 0
12 -3 31 -6 43 -5 20 -1 21 76 27 73 6 84 4 110 -15 28 -20 35 -21 196 -14
170 8 328 26 374 45 38 15 50 13 50 -8z m-1487 -58 c-18 -2 -48 -2 -65 0 -18
2 -4 4 32 4 36 0 50 -2 33 -4z m-145 -10 c-16 -2 -40 -2 -55 0 -16 2 -3 4 27
4 30 0 43 -2 28 -4z m821 -67 c22 1 22 0 -6 -26 -19 -19 -43 -29 -76 -34 l-47
-6 35 31 c19 17 38 42 41 56 l6 24 12 -23 c8 -14 20 -23 35 -22z m640 28 c-41
-49 -151 -69 -211 -38 -41 21 -22 33 52 35 45 1 155 12 169 18 2 0 -2 -6 -10
-15z m-1341 -56 c-43 -7 -107 -7 -180 -1 l-113 10 180 0 c156 0 171 -1 113 -9z"/>
<path d="M690 2413 c0 -65 -2 -217 -5 -338 -3 -121 -7 -334 -10 -472 l-5 -253
64 0 65 0 3 88 c2 48 5 193 6 322 3 304 11 430 28 430 17 0 16 6 123 -500 28
-129 56 -259 62 -287 l12 -53 48 0 c40 0 48 3 52 23 3 12 29 135 58 272 102
491 114 540 129 540 18 0 27 -127 29 -420 0 -104 4 -241 8 -302 l6 -113 60 0
60 0 -8 583 c-4 320 -10 586 -14 590 -4 4 -48 7 -97 5 l-88 -3 -18 -80 c-10
-44 -40 -188 -68 -320 -84 -398 -93 -437 -107 -442 -8 -3 -16 -3 -18 -1 -3 3
-43 190 -90 417 -47 227 -87 417 -91 422 -3 5 -48 9 -100 9 l-94 0 0 -117z"/>
<path d="M1930 2314 c-77 -33 -123 -101 -141 -211 -18 -101 0 -149 120 -329
111 -167 126 -203 118 -281 -11 -103 -79 -153 -161 -119 -53 22 -81 87 -73
171 l6 62 -67 6 c-45 3 -69 1 -74 -6 -12 -18 -9 -133 3 -182 15 -61 71 -123
139 -153 43 -20 72 -26 135 -26 89 -1 120 11 176 66 53 54 74 110 74 208 0
104 -21 153 -143 338 -91 138 -108 179 -98 245 13 82 69 123 146 106 58 -13
80 -48 80 -129 l0 -69 43 -6 c24 -4 55 -5 68 -3 22 3 24 8 27 71 5 124 -54
207 -174 243 -61 18 -159 17 -204 -2z"/>
</g>
</svg>
